<svg id="Layer_1" xmlns="http://www.w3.org/2000/svg" viewBox="0 0 790 790" enable-background="new 0 0 790 790"><style>.st0{filter:url(#Adobe_OpacityMaskFilter)}.st1{mask:url(#SVGID_1_);fill:#f59122}.st2{fill:#fff}.st3{fill:#f49022}.st4{fill:#fafbfa}.st5{fill:none;stroke:#f29023;stroke-width:.3674;stroke-miterlimit:10}.st6{fill:#f29023}.st10,.st7,.st8,.st9{fill:none;stroke:#f29023;stroke-width:.8586;stroke-miterlimit:10}.st10,.st8,.st9{fill:#fff;stroke:#fff;stroke-width:.8169}.st10,.st9{fill:none;stroke:#f29023;stroke-width:1.3364}.st10{stroke-width:.9246}.st11{fill:#efeeed}.st12{fill:none;stroke:#fbfbfb;stroke-width:1.5659;stroke-linecap:round;stroke-miterlimit:10}.st13,.st14,.st15,.st16{fill:none;stroke:#f29023;stroke-width:.7657;stroke-miterlimit:10}.st14,.st15,.st16{fill:#fff;stroke:#fff;stroke-width:.163}.st15,.st16{stroke-width:.0494}.st16{fill:none;stroke:#231f20;stroke-width:3.2744}</style><defs><filter id="Adobe_OpacityMaskFilter" filterUnits="userSpaceOnUse" x="0" y="0" width="790" height="790"><feColorMatrix values="-1 0 0 0 1 0 -1 0 0 1 0 0 -1 0 1 0 0 0 1 0" color-interpolation-filters="sRGB" result="source"/><feFlood result="back" flood-color="#fff" flood-opacity="1"/><feBlend in="source" in2="back"/></filter></defs><path class="st1" d="M0 0h790v790H0z"/><path class="st2" d="M357.24 641.09c11.36 2.97 22.89 6.56 34.26 9.53 12.75 3.34 25.52 6.67 38.48 8.98 7.13 1.27 14.53 2.21 21.51.23 11.4-3.23 19.9-13.72 31.22-17.27 9.96-3.12 22.47-1.22 27.69-12.44 1.23-2.64 1.74-5.59 1.78-8.52.22-16.28-8.87-32.14-22.44-39.84-11.13-6.32-24.3-7.15-36.94-6.68-12.64.47-25.36 2.11-37.88.2 12.32-8.89 23.86-22.03 34.55-33.02 8.28-8.51 17.32-16.17 26.34-23.81 4.42-3.74 8.99-7.57 14.43-9.27 8.74-2.74 18.96 1 24.19 8.85 2.09 3.14 3.44 7.11 2.54 10.82-.91 3.73-3.85 6.46-6.56 9.06-7.7 7.37-14.29 16.6-20.42 25.45 19.71-16.19 35.73-33.73 55.44-49.93 6.8-5.59 14.12-11.4 22.72-12.23 8.35-.81 16.97 3.72 21.37 11.23 2 3.41 3.16 7.59 2.13 11.44-.98 3.67-3.74 6.45-6.38 9.07-17.93 17.75-30.44 38.46-47.28 57.35 15.07-15.16 31.27-29.78 49.81-39.84 6.18-3.35 12.85-6.12 19.8-6.18 6.95-.07 14.24 3.01 17.93 9.2 4.11 6.89 2.92 16.15-.94 23.2s-9.97 12.38-15.94 17.54c-40.44 34.94-80.88 69.89-121.32 104.83-11.24 9.71-22.99 19.7-37.11 23.37-19.75 5.13-40.19-2.96-59.07-10.9-27.17-11.44-54.35-22.88-81.52-34.31-15.52-6.53-31.38-13.15-48.08-14.2-16.69-1.05-34.67 4.42-45.01 18.23-4.67-46.18-32.77-88.77-36.26-135.06 27.73-3.77 51.33-25.63 79.23-27.59 18.71-1.31 36.92 6.59 53.22 16.35 18.84 11.28 36.15 25.18 54.87 36.66 18.72 11.48 39.44 20.64 61.11 21.07 12.07.24 24.19-2.24 36.18-.7 12.8 1.65 26.27 9.48 28.5 23.25.69 4.29-.04 8.84-2.72 12.16-5.52 6.85-14.18 3.94-21.7 5.23-8.02 1.38-14.45 7.52-21.77 11.23-13.7 6.95-29.86 5.13-44.79 2.03-14.95-3.12-30.15-7.37-45.17-4.77M316.39 418.26c-.48-.31-2.02-.96-2.58-.83-1.83-1.67-3.22-3.76-4.59-5.82-.55-.84-1.11-1.67-1.66-2.51-9.02-10.53-17.94-21.14-26.96-31.68-.71-.83-1.52-1.71-2.6-1.86-1.29-.18-2.45.76-3.41 1.64-1.07.96-2.23 2.18-2.02 3.6.12.82.69 1.5 1.23 2.12 9.15 10.57 18.32 21.01 27.47 31.58 2.98 2.21 5.73 4.74 8.17 7.53-.05.44.41 1.62.36 2.06"/><path class="st2" d="M316.54 418.02c-.76-.43-1.61-.52-2.37-.88-2.07-.96-3.48-3.84-4.7-5.67-2.32-3.48-5.11-6.54-7.82-9.72-6.31-7.42-12.6-14.86-18.92-22.26-1.58-1.85-3.44-5.1-6.33-3.93-1.82.74-4.44 3.16-4.12 5.33.22 1.47 1.7 2.71 2.61 3.76 1.74 2.01 3.49 4.02 5.23 6.02 3.16 3.63 6.32 7.26 9.48 10.88 3.6 4.13 7.17 8.3 10.79 12.41 2.71 3.07 8.68 5.59 9.1 10.13.03.37.61.37.58 0-.26-2.77-2.03-4.09-4.02-5.95-2.84-2.66-5.63-5.03-8.2-7.98-5.55-6.39-11.12-12.76-16.68-19.15-1.31-1.5-2.62-3.01-3.92-4.51l-1.96-2.26c-1.33-1.53-2.65-3.92-1.51-5.79.33-.54 1.04-1.19 1.58-1.52.84-.5 3.14-.82 4.1-.27.59.34 1.12 1.22 1.56 1.72 1.4 1.63 2.79 3.26 4.18 4.9 5.46 6.41 10.89 12.84 16.35 19.25 2.94 3.46 5.76 6.86 8.33 10.6.9 1.31 2.07 3.32 3.42 4.22.89.59 1.94.6 2.94 1.16.33.19.62-.31.3-.49z"/><path class="st2" d="M339.33 416.52c-12.75-5.41-27.47.53-32.88 13.28-5.41 12.75.53 27.47 13.28 32.88 12.75 5.41 27.47-.53 32.88-13.28 5.42-12.75-.53-27.47-13.28-32.88zm9.7 31.36c-2.21 5.21-6.32 9.24-11.57 11.36-.11.04-.23.07-.34.07-.36 0-.71-.22-.85-.57-.19-.47.04-1 .51-1.19 4.79-1.93 8.54-5.62 10.56-10.38 2.02-4.76 2.07-10.02.13-14.81-.19-.47.04-1 .51-1.19.47-.19 1 .04 1.19.51 2.12 5.23 2.07 10.99-.14 16.2z"/><path class="st3" d="M311.14 412.97c-2.8.49-5.03 3.04-6.56 5.27-.37.53.5 1.04.87.51 1.4-2.02 3.44-4.36 5.96-4.8.63-.12.36-1.09-.27-.98z"/><path class="st2" d="M384.66 415.52c-12.33-11.07-24.64-22.63-36.42-34.27-2.18-2.15-4.82-4.8-6.45-7.28l-5.4 5.52c1.99 1.42 4.37 2.91 6.09 4.65 8.81 8.9 17.19 18.35 26 27.25 3.35 3.39 6.88 6.51 9.77 10.3.95-.06 2.05-.7 2.78-1.31s1.42-1.05 2.01-1.8c.65-.85 1.25-2.06 1.62-3.06z"/><path class="st2" d="M296.61 354.93c6.73 14.09 13.08 28.79 18.76 43.33 5.19-3.11 9.55-7.4 13.85-11.64 10.89-10.75 22.18-21.56 30.96-34.1-14.46-6.18-29.46-12.4-44.21-17.86-5.72 7.38-12.45 14.02-19.36 20.27zM392.23 411.09c.01-.02.03-.03.04-.05-.83-.27-2.19-.3-3.25.53-1.7 1.01-3.52 2.08-5.06 3.32l-6.35 6.45c-1.27 1.6-2.93 3.33-3.26 5.2-.23.44-.65 1.85-.57 2.81 8.33-3.64 14.28-10.27 18.45-18.26z"/><path class="st2" d="M393.75 411.08c.17.25.24.58.06.93-4.31 8.28-10.56 15.22-19.2 18.98-.34.15-.66.08-.91-.09-.78 1.7.46 3.39 1.18 3.69 2.7-.16 7.25-3.88 10.29-6.8 4.82-4.65 9.49-9.19 12.51-15.17-.36-1.06-2.67-1.85-3.93-1.54zM466.47 217.21c.33.33.69.63 1.03.95-.34-.32-.7-.63-1.03-.95zM469.69 219.98c-.41-.32-.84-.63-1.23-.96.39.34.81.64 1.23.96zM512.98 178.27l-17.89 12.53a8.46 8.46 0 0 0-2.11-2.11l12.53-17.89a30.302 30.302 0 0 0-17.46-5.52c-16.82 0-30.45 13.63-30.45 30.45 0 6.5 2.05 12.51 5.52 17.46l17.89-12.53c.58.81 1.27 1.52 2.11 2.11l-12.53 17.89a30.302 30.302 0 0 0 17.46 5.52c16.82 0 30.45-13.63 30.45-30.45.01-6.51-2.05-12.52-5.52-17.46zm-24.93 22.82a5.36 5.36 0 1 1 0-10.72 5.36 5.36 0 0 1 0 10.72z"/><circle class="st5" cx="488.05" cy="195.72" r="8.6"/><path class="st2" d="M488.05 166.04c16.37 0 29.68 13.32 29.68 29.68s-13.31 29.68-29.68 29.68c-16.37 0-29.68-13.32-29.68-29.68s13.32-29.68 29.68-29.68m0 35.82c3.38 0 6.14-2.75 6.14-6.14s-2.75-6.14-6.14-6.14c-3.38 0-6.14 2.75-6.14 6.14s2.76 6.14 6.14 6.14m0-36.59c-16.82 0-30.45 13.63-30.45 30.45s13.63 30.45 30.45 30.45 30.45-13.63 30.45-30.45-13.63-30.45-30.45-30.45zm0 35.82a5.36 5.36 0 1 1 5.36-5.36c.01 2.96-2.4 5.36-5.36 5.36zM438.29 196.05c.22-.4.8-.36 1.25-.24 4.33 1.13 8.28 3.64 11.16 7.06.43.51.85 1.13.72 1.78-.12.58-.65.97-1.15 1.3-1.04.7-2.12 1.42-3.35 1.68-1.96.43-4-.35-5.68-1.45-1.64-1.07-3.11-2.5-3.82-4.32-.71-1.82-.44-4.37.87-5.81z"/><path class="st6" d="M451.79 204.11c-2.41-.97-4.73-2.14-6.91-3.55-1.42-.92-5.71-3.3-5.81-5.26-.01-.31-.5-.31-.48 0 .1 2 3.19 3.67 4.68 4.74 2.6 1.86 5.43 3.34 8.39 4.53.29.12.41-.35.13-.46z"/><path class="st2" d="M427.83 199.79c.72-.71 1.91-.47 2.87-.14 2.92.99 5.72 2.3 8.36 3.88l5.11 3.53a52.41 52.41 0 0 1 6.8 6.44c.4.46.81.94 1 1.52.19.58.12 1.29-.34 1.7.56.76.24 2.39-.5 2.98.7 3.43-.37 7.28-2.71 9.89.38 2.81-.54 5.77-2.45 7.87-.78.86-1.76 1.64-2.09 2.76-.23.77-.11 1.59-.08 2.39.12 3.53-1.54 7.41-4.41 9.46-.61 2.54-1.24 5.02-2.54 7.28-1.3 2.26-3.41 4.2-5.98 4.66-1.82.33-3.69-.1-5.47-.6-12.66-3.56-24.18-11.06-32.56-21.2-1.57-1.9-3.09-4.03-3.3-6.49-.22-2.49.98-4.94 2.67-6.78 1.7-1.84 3.79-3.24 5.92-4.54 1.17-3.99 4.58-7.24 8.62-8.22 1.57-3.45 4.59-6.2 8.16-7.46 1.97-3.21 5.73-5.62 9.43-6.3.43-1.44 2.03-2.51 3.49-2.63"/><path class="st6" d="M451.02 219.46c-1.36 1.03-4.28-.48-5.58-1.05-2.42-1.05-4.74-2.35-7-3.71-2.38-1.44-4.7-2.98-6.93-4.65-2.71-2.04-5.93-4.45-6.99-7.78-.09-.3-.56-.17-.47.13 1 3.16 3.74 5.38 6.27 7.35 2.67 2.08 5.5 3.97 8.41 5.7 2.58 1.53 5.25 3.02 8.08 4.05 1.19.44 3.25 1.28 4.44.39.26-.2.02-.62-.23-.43z"/><path class="st6" d="M451.64 216.45c-4.53.35-9.58-3.05-13.26-5.42a56.199 56.199 0 0 1-5.72-4.22c-1.45-1.22-6.16-4.5-4.67-6.93.16-.27-.26-.51-.42-.24-1.07 1.75.04 3.09 1.32 4.38 2.1 2.1 4.39 4.02 6.8 5.76a56.18 56.18 0 0 0 7.94 4.79c2.51 1.25 5.13 2.58 8 2.36.31-.02.32-.5.01-.48z"/><path class="st2" d="M419.97 204c.64-.19 1.1-.9 1.09-1.61s-.38-1.37-.81-1.94c-.69-.94-1.54-1.75-2.5-2.41l.04.03c-1.52.4-2.61.14-3.73-.96s-1.89-2.49-2.88-3.71c-.98-1.22-2.3-2.32-3.86-2.46-2.11-.19-3.95 1.42-5.23 3.1s-2.38 3.63-4.22 4.68c-1.5.86-3.34 1.02-4.76 2-1.99 1.36-2.7 3.93-4.19 5.83-2.2 2.77-6.28 3.86-9.57 2.55-1.29-.52-2.53-1.49-2.8-2.85-.2-1.04.21-2.12.87-2.96s1.53-1.46 2.39-2.08c3.01-2.15 6.01-4.3 9.02-6.46 3.39-2.43 6.8-4.87 10.6-6.58s8.06-2.66 12.16-1.94 8.01 3.29 9.65 7.12c.28.65.49 1.37.35 2.07-.14.69-.87 1.81-1.58 1.77.79.83 1.59 1.67 2.24 2.63.49.73 1.06 1.96.95 2.84.25 2.4-1.05 2.51-3.23 1.34z"/><path class="st6" d="M417.77 193.59c-1.68-2.77-4.43-4.43-7.26-5.84-.28-.14-.52.28-.24.42 2.75 1.37 5.45 2.97 7.08 5.67.16.26.58.02.42-.25zM419.98 194.32c-.55.53-1.36.69-2.07.38-.28-.12-.53.29-.24.42.91.4 1.93.24 2.65-.46.22-.22-.12-.56-.34-.34z"/><path class="st2" d="M444.82 206.17c-.38.4-1.04 1.56-1.35 2.02-.31.46-.75.89-1.3.95-.4.04-.79-.11-1.15-.28-1.21-.58-2.32-1.39-3.23-2.37-.15-.17-.31-.35-.32-.58-.01-.24.14-.45.29-.64.54-.69 1.41-1.88 1.95-2.57"/><path class="st6" d="M444.65 206c-.4.48-.72 1.01-1.05 1.54-.43.68-1.64 1.21-2.45 1.11-.48-.06-1.13-.62-1.52-.89-1.11-.78-2.19-1.45-1.32-2.81.47-.74 1.08-1.44 1.61-2.13.19-.25-.23-.49-.42-.24-.5.65-.99 1.32-1.49 1.98-.28.37-.74.79-.77 1.3-.05.96 1.48 1.87 2.15 2.33.87.6 2.15 1.53 3.27 1.08 1.13-.46 1.61-2.03 2.33-2.9.2-.27-.14-.61-.34-.37zM415.24 227.73a24.29 24.29 0 0 1-5.31-5.4c-.18-.25-.6-.01-.42.24 1.53 2.14 3.37 4 5.48 5.57.26.19.5-.23.25-.41zM423.49 217.78a16.999 16.999 0 0 1-4.9-4.62c-.18-.25-.6-.01-.42.24 1.37 1.93 3.07 3.54 5.08 4.79.26.18.5-.24.24-.41zM405.37 236.81a12.677 12.677 0 0 1-4.64-5.33c-.13-.28-.55-.04-.42.24 1.06 2.28 2.71 4.15 4.81 5.51.26.16.51-.26.25-.42zM443.78 230.08a7.37 7.37 0 0 1-4.44-1.42c-.25-.18-.5.24-.24.42 1.39.99 2.98 1.49 4.68 1.48.31 0 .32-.48 0-.48zM433.22 252.86c-3.44-.52-6.61-1.73-9.53-3.63-.26-.17-.5.25-.24.42 2.95 1.92 6.17 3.15 9.64 3.68.3.04.43-.42.13-.47zM437.69 240.96c-2.09-.57-3.99-1.51-5.71-2.82-.25-.19-.49.23-.24.42 1.75 1.34 3.7 2.29 5.83 2.87.29.08.42-.38.12-.47z"/><path class="st2" d="M487.51 241.86c-2.95-2.07-6.63-3.06-10.22-2.77-3.43.28-6.69 1.7-9.58 3.58s-5.44 4.22-8 6.53c-3.13 2.84-6.36 5.7-10.23 7.39s-7.84 2.43-11.47.26c-.5 1.33-1.09 2.46-1.76 3.41 4.93 2.58 10.15 2.36 15.24.12 3.07-1.35 5.71-3.49 8.31-5.61l10.22-8.33c1.76-1.43 3.58-2.9 5.75-3.58 3.84-1.19 7.94.3 11.68 1.77 1.08.53 2.02-1.22.06-2.77z"/><g><path class="st6" d="M487.51 241.68c-.82.01-1.37.43-1.18 1.29.13.62.52 1.35.99 1.79.17.16.43-.1.26-.26-.33-.31-.58-.77-.75-1.18-.1-.24-.22-.55-.17-.82.08-.42.49-.46.86-.47.23.01.23-.36-.01-.35z"/></g><g><path class="st2" d="M531.95 65.13c-14.45-1.02-29.76-.08-44.03 2.39 3.38 7.09 3.31 15.74-.19 22.78 3.59.7 7.12 1.7 10.56 2.97-3.24 13.75-8.38 27.24-15 39.72-2.63 4.96-5.58 9.98-6.13 15.56-.07.67-.09 1.38.23 1.98.4.74 1.23 1.11 2.01 1.44 17.73 7.45 35.45 14.89 53.18 22.34 1.13.48 2.47.94 3.54.34.74-.42 1.13-1.25 1.48-2.03a450.735 450.735 0 0 0 20.69-56.64c3.54 1.03 6.59 2.27 9.8 4.07.68.38 1.49.78 2.19.43.59-.3.81-1 1-1.63 2.1-6.84 7.36-12.63 13.96-15.38-5.97-7.28-12.01-14.62-19.41-20.43-3.67-2.88-7.27-5-10.57-8.29-8.67.5-17.52-3.17-23.31-9.62"/><path class="st6" d="M554.64 74.58c-2.05 6.39-9.4 8.96-15.27 6.1-5.84-2.85-7.71-9.31-6.81-15.38.12-.8-1.1-1.14-1.22-.34-1.05 7.08 1.39 14.51 8.49 17.3 6.44 2.53 13.88-.67 16.02-7.35.26-.77-.96-1.11-1.21-.33z"/></g><g><path class="st2" d="M481.96 432.29c-10.62-16.1-23.59-30.28-37.96-43.14 10.46-5.58 18.43-16.39 21-27.96-2.56-1.44-2.8-4.79-1.17-7.23 1.63-2.44 4.06-3.58 6.99-3.65 2.93-.07 5.81.75 8.66 1.45 12.72 3.15 26.07 4.11 38.99 1.9 12.92-2.21 25.38-7.66 35.21-16.34 5.01-4.42 9.47-9.75 15.58-12.48s14.68-1.66 17.57 4.38c2.23 4.65.27 10.16-1.99 14.78-2.81 5.74-6.09 11.25-9.81 16.45-7.59 10.62-16.9 19.87-26.16 29.06-14.01 13.9-28.02 27.8-42.02 41.7-4.42 4.39-9 8.88-14.75 11.28-.01 0-7.77-3.79-10.14-10.2"/><path class="st6" d="M569.62 324.69l1.37.06 1.59 2.73c.03.38-.28 1.08-.39 1.47-.3 1.07-.64 2.13-.99 3.19a84.51 84.51 0 0 1-2.64 6.9c-1.77 4.08-3.85 8.03-6.15 11.84-4.77 7.88-10.48 15.15-16.64 21.98-13.22 14.65-28.36 27.41-41.87 41.79-6.01 6.4-13.01 15.31-22.04 17.25-.5.11-.29.88.21.77 8.46-1.82 15.11-9.71 20.76-15.71 7.58-8.05 15.5-15.74 23.49-23.38 15.19-14.52 30.51-29.61 40.24-48.49 2.5-4.84 4.6-9.9 6.16-15.13.45-1.49 1.34-3.52.22-4.92-.78-.99-2.36-1.42-3.54-1.12-.49.13-.28.9.22.77z"/><ellipse transform="rotate(-45.709 478.97 396.562)" class="st7" cx="478.92" cy="396.54" rx="12.38" ry="12.9"/><circle class="st7" cx="511.09" cy="399.48" r="2.44"/><circle class="st7" cx="521.37" cy="387.92" r="2.44"/><path class="st6" d="M546.97 346.34c6.33-3.16 12.83-5.72 19.84-3.06.48.18.69-.59.21-.77-7.2-2.73-13.95-.1-20.45 3.14-.46.23-.06.92.4.69zM537.6 350.89c1.99-.92 3.96-1.87 5.92-2.84.46-.23.06-.91-.4-.69-1.97.97-3.94 1.91-5.92 2.84-.47.22-.07.9.4.69zM527.16 355.31c2.32-.88 4.62-1.83 6.9-2.82.47-.2.06-.89-.4-.69-2.21.97-4.45 1.88-6.71 2.74-.48.18-.27.95.21.77zM516.6 358.68c2.14-.55 4.25-1.18 6.35-1.87.49-.16.28-.93-.21-.77-2.1.69-4.21 1.32-6.35 1.87-.49.13-.28.9.21.77zM505.09 360.71c2.32-.22 4.63-.56 6.92-.99.5-.1.29-.86-.21-.77-2.22.42-4.45.75-6.71.96-.5.05-.51.85 0 .8zM493.51 360.7c2.45.24 4.9.32 7.37.27.51-.01.51-.81 0-.8-2.46.06-4.91-.03-7.37-.27-.51-.05-.5.75 0 .8zM482.79 358.43c2.09.62 4.18 1.2 6.33 1.62.5.1.72-.67.21-.77-2.14-.42-4.23-1-6.33-1.62-.49-.14-.7.63-.21.77zM465.09 361.47c2.2-4.59 8.23-5.06 12.66-4.33.5.08.72-.69.21-.77-4.76-.79-11.19-.24-13.56 4.7-.22.46.47.87.69.4z"/><path class="st6" d="M560.04 341.34c-2.54-.59-4.14-2.62-5.39-4.78-.26-.44-.95-.04-.69.4 1.36 2.33 3.13 4.5 5.87 5.14.5.12.71-.64.21-.76zM488.25 440.23c13.27-6.13 21.25-18.09 30.78-28.56 9.08-9.96 19.38-18.58 29.44-27.5 4.48-3.97 8.9-8.06 12.73-12.68.33-.39-.24-.96-.56-.56-9.5 11.47-21.99 20.26-32.71 30.52-6.78 6.48-12.72 13.55-18.79 20.67-5.99 7.02-12.83 13.52-21.28 17.42-.48.21-.07.9.39.69z"/><path class="st6" d="M553.43 364.33c2.96 3.85 6.75 6.85 11.11 8.98.46.22.86-.46.4-.69-4.23-2.06-7.96-4.95-10.83-8.69-.3-.4-1 0-.68.4zM487.13 367.28a32.45 32.45 0 0 1 5.79-12.91c.31-.41-.39-.81-.69-.4a32.843 32.843 0 0 0-5.87 13.1c-.1.5.67.71.77.21zM490.77 367.35c.54-4.76 4.58-8.27 6.05-12.76.16-.49-.61-.7-.77-.21-1.51 4.6-5.52 8.06-6.08 12.97-.05.51.75.51.8 0z"/><path class="st6" d="M496.3 360.28c-.01-.97-.27-1.97-.72-2.83-.24-.45-.93-.05-.69.4.39.73.6 1.6.61 2.43 0 .51.8.51.8 0zM500.69 360.44c-.2-1.99-.58-3.98-1.16-5.89-.15-.49-.92-.28-.77.21.56 1.84.94 3.76 1.13 5.67.05.51.85.52.8.01z"/><path class="st6" d="M499.07 368.11c.96-4.59 2.6-8.96 4.91-13.05.25-.45-.44-.85-.69-.4a45.815 45.815 0 0 0-4.99 13.24c-.11.49.66.71.77.21zM503.55 367.62c.79-4.38 2.12-8.65 4.14-12.62.23-.46-.46-.86-.69-.4-2.05 4.03-3.42 8.36-4.22 12.81-.09.5.68.72.77.21z"/><path class="st6" d="M508.44 359.62c-.57-.86-1.44-1.48-2-2.34-.28-.43-.97-.03-.69.4.57.86 1.44 1.48 2 2.34.28.43.97.03.69-.4zM511.86 358.66c-1.14-1.66-2.67-3.05-4.31-4.2-.42-.3-.82.4-.4.69 1.52 1.07 2.97 2.38 4.02 3.92.29.41.98.01.69-.41z"/><path class="st6" d="M511.14 366.29c.52-3.99 1.12-8.03 2.76-11.74.21-.47-.48-.87-.69-.4-1.71 3.85-2.33 8-2.87 12.14-.07.5.73.5.8 0zM514.39 366.52c2.26-4.01 1.87-8.96 4.49-12.79.29-.42-.4-.82-.69-.4-2.63 3.84-2.23 8.78-4.49 12.79-.25.45.44.85.69.4z"/><path class="st6" d="M519.01 357.16c-.4-.35-.81-.69-1.21-1.04-.39-.33-.95.23-.56.56.4.35.81.69 1.21 1.04.38.34.95-.22.56-.56zM522.7 356.16c-1.18-.99-2.46-1.94-3.91-2.48-.48-.18-.69.59-.21.77 1.32.49 2.49 1.38 3.56 2.28.39.32.95-.24.56-.57z"/><path class="st6" d="M522.68 360.72c.09-2.77.71-5.4 1.87-7.91.21-.46-.47-.87-.69-.4a21.197 21.197 0 0 0-1.98 8.31c-.02.52.78.52.8 0zM526.37 360.19c.35-2.93 1.12-5.75 2.32-8.45.21-.47-.48-.87-.69-.4a30.544 30.544 0 0 0-2.43 8.85c-.06.51.74.5.8 0z"/><path class="st6" d="M529.43 353.84c-.38-.53-.88-.88-1.53-1-.5-.09-.72.68-.21.77.43.08.79.27 1.05.64.3.41.99.01.69-.41zM531.66 352.62c-.91-.74-2-1.31-3.13-1.62-.5-.14-.71.63-.21.77 1 .27 1.98.76 2.78 1.41.39.32.96-.24.56-.56zM534.7 357.03c-.74-2.63-.66-5.26.24-7.85.17-.49-.6-.69-.77-.21-.94 2.71-1.02 5.51-.24 8.27.14.5.91.29.77-.21zM537.95 355.88c-.34-2.68-.29-5.35.17-8.01.09-.5-.68-.72-.77-.21a27.3 27.3 0 0 0-.2 8.22c.06.5.86.51.8 0zM546.55 351.38a20.642 20.642 0 0 0-4.98-5.87c-.4-.32-.96.24-.56.56 1.96 1.57 3.62 3.52 4.85 5.7.26.46.95.06.69-.39zM548.98 350.45c-.2-2.89-1.85-5.42-4.45-6.72-.46-.23-.86.46-.4.69 2.34 1.17 3.87 3.41 4.05 6.03.04.51.84.52.8 0zM474.47 364.39a68.35 68.35 0 0 1 6.7-12.1c.29-.42-.4-.82-.69-.4a68.35 68.35 0 0 0-6.7 12.1c-.2.46.49.87.69.4zM477.26 367.16c3.49-4.23 6.2-8.98 8.25-14.05.19-.48-.58-.68-.77-.21-2 4.94-4.65 9.59-8.05 13.7-.32.39.24.96.57.56z"/><path class="st6" d="M485.47 358.32c-.45-.81-.9-1.62-1.34-2.42-.25-.45-.94-.05-.69.4.45.81.9 1.62 1.34 2.42.25.45.94.05.69-.4zM489.58 359.27c-.76-2.25-2.01-4.35-3.46-6.22-.31-.41-.88.16-.56.56 1.36 1.76 2.54 3.76 3.26 5.87.15.49.92.28.76-.21zM510.15 365.29c-2.15 2.09.11 5.31 2.78 5.07 2.18-.2 5.16-3.85 2.19-5.18-.46-.21-.87.48-.4.69 1.23.55.75 2.02.03 2.77-.55.57-1.35.95-2.15.94-1.85-.02-3.4-2.24-1.87-3.72.36-.36-.21-.93-.58-.57zM521.59 359.86c-1.02.66-1.24 1.9-.58 2.92.75 1.15 2.29 1.69 3.62 1.54 1.35-.15 2.74-1.06 3.19-2.38.41-1.21-.14-2.41-1.35-2.79-.49-.16-.7.61-.21.77 1.39.44.94 1.95.22 2.68-.53.54-1.22.84-1.96.92-.64.07-1.21-.03-1.78-.31-.9-.45-2.08-1.8-.74-2.65.42-.29.02-.98-.41-.7zM533.88 356.11c-1.44.22-1.98 1.77-1.31 2.99.74 1.34 2.48 1.82 3.91 1.52 1.44-.3 3.01-1.4 3.37-2.9.34-1.43-.55-2.74-2.03-2.77-.51-.01-.51.79 0 .8 1.91.04 1.35 2.06.66 2.84-.47.53-1.14.95-1.82 1.16-.81.25-1.73.23-2.49-.18-.98-.53-1.82-2.42-.08-2.69.51-.08.3-.85-.21-.77zM545.24 350.49c-1.03.69-1.34 2-.55 2.99.85 1.08 2.42 1.34 3.68.96 1.32-.4 2.75-1.7 2.99-3.12.26-1.52-1.27-2.13-2.49-2.35-.5-.09-.72.68-.21.77.23.04.47.08.7.14.19.07.38.14.57.2.14.57.28 1.14.41 1.7-.13.6-1.09 1.37-1.58 1.62-.69.36-1.52.52-2.29.3-1.04-.3-2.17-1.65-.84-2.53.44-.28.04-.97-.39-.68zM498.65 366.29c-3.89.53-1.65 5.95 1.49 6.04 1.64.04 3.42-1.08 4.27-2.47.68-1.12.76-2.56-.62-3.11-.48-.19-.68.58-.21.77 1.39.55-.12 2.38-.6 2.82-.58.53-1.4 1.02-2.19 1.15-1.08.18-2.04-.22-2.74-1.03-.95-1.12-1.06-3.13.81-3.39.51-.08.29-.85-.21-.78zM486.79 364.89c-1.42.35-3.22 1.11-3.05 2.9.17 1.72 2.11 2.87 3.65 3.13 1.67.27 3.52-.37 4.54-1.75 1.05-1.42.36-2.69-.87-3.7-.39-.33-.96.24-.56.56.85.7 1.37 2.09.54 2.96-.71.74-1.79 1.2-2.82 1.19-1.06-.01-2.48-.44-3.11-1.37-.46-.69-.04-2.29.64-2.74.35-.23.85-.31 1.25-.41.5-.12.29-.89-.21-.77zM474.1 363.22c-1.26.65-2.31 1.53-2.16 3.09.14 1.41 1.3 2.46 2.62 2.79 1.85.46 5.73-.77 4.1-3.31-.28-.43-.97-.03-.69.4 1.23 1.92-2.17 2.4-3.2 2.14-.94-.24-1.84-.92-2.02-1.92-.24-1.29.75-1.98 1.75-2.5.46-.23.06-.92-.4-.69z"/><path class="st6" d="M486.37 367.29c.17 1.19 1.32 2.07 2.51 2.05 1.16-.02 1.99-.99 1.82-2.13-.08-.51-.85-.29-.77.21.14.93-.91 1.26-1.62 1.03-.64-.21-1.08-.72-1.18-1.38-.07-.5-.84-.28-.76.22zM473.79 364.25c-.26.93-.24 1.86.56 2.52.77.64 1.78.69 2.73.66.51-.02.51-.82 0-.8-.66.02-1.38.04-1.98-.3-.74-.43-.76-1.11-.55-1.87.15-.49-.62-.7-.76-.21zM533.97 357.34c.46 1.07 1.57 1.65 2.7 1.23 1.1-.42 1.6-1.61 1.26-2.71-.15-.49-.92-.28-.77.21.22.71-.06 1.5-.8 1.76-.78.27-1.39-.19-1.7-.89-.2-.47-.89-.07-.69.4zM545.86 351.78c.29.38.5.78.96.98.41.18.91.2 1.31-.03.8-.45 1.15-1.67.8-2.48-.21-.47-.89-.06-.69.4.17.4-.14 1.21-.53 1.39-.56.25-.88-.3-1.16-.67-.31-.39-1 0-.69.41zM521.84 360.72c.06 1.36.77 2.05 2.15 1.88 1.41-.18 2.04-.94 2.28-2.3.09-.5-.68-.72-.77-.21-.14.79-.31 1.39-1.16 1.64-.34.1-.83.18-1.17.08-.5-.15-.51-.65-.53-1.09-.03-.51-.82-.52-.8 0zM510.42 366.39c.11 1.05.87 2.14 2.03 2.15 1.04.01 1.94-1.27 1.99-2.22.03-.51-.77-.51-.8 0-.03.51-.63 1.42-1.19 1.42-.69 0-1.16-.75-1.23-1.36-.06-.49-.86-.5-.8.01zM498.26 368c.14 1.47.85 2.63 2.48 2.24 1.41-.33 2.62-1.27 2.79-2.77.06-.51-.74-.5-.8 0-.1.88-.77 1.45-1.55 1.78-.55.23-.76.28-1.34.06-.42-.01-.65-.22-.69-.61-.06-.23-.09-.46-.11-.7-.03-.51-.83-.51-.78 0z"/></g><g><path class="st8" d="M431.31 398.32l-84.83 75.5s-4.1 2.96-1.63 8.05c2.46 5.09 26.33 38.53 49.2 48.6 0 0 2.88.77 6.14-1.63 4.09-3.01 78.72-77.61 78.72-77.61s2.22-1.35.17-4.04c-2.06-2.69-44.82-48.68-44.82-48.68s-1.34-1.61-2.95-.19z"/><path class="st9" d="M382.1 458.47l4.32-3.98 4.53 4.92-4.06 3.74 4.01 4.35-4.35 4.01-3.94-4.28-4.17 3.84-4.22-4.58 3.49-3.22-4.32-4.69 4.69-4.33z"/><circle class="st9" cx="406.18" cy="489.52" r="4.8"/><circle class="st9" cx="418.38" cy="496.29" r="4.8"/><path class="st9" d="M386.64 500.46l-2.81-3.05c-.49-.54-.46-1.38.08-1.88.54-.49 1.38-.46 1.88.08l2.81 3.05c.49.54.46 1.38-.08 1.88-.54.49-1.38.46-1.88-.08zM378.89 492.05l-2.81-3.05c-.49-.54-.46-1.38.08-1.88.54-.49 1.38-.46 1.88.08l2.81 3.05c.49.54.46 1.38-.08 1.88-.54.49-1.38.45-1.88-.08zM433.75 404.69l40.81 44.32s.98.76.02 1.83-35.34 34.58-35.34 34.58-1.51 1.67-3.58.33-26.51-21.86-42.91-44.6c0 0-.58-1.04.65-2.82s38.08-34.22 38.08-34.22 1.02-.77 2.27.58z"/><path class="st9" d="M436.13 470.49l-26.84-29.16a.982.982 0 0 1 .06-1.39l25.1-23.11a.982.982 0 0 1 1.39.06l26.84 29.16c.37.4.34 1.02-.06 1.39l-25.1 23.11a.99.99 0 0 1-1.39-.06z"/></g><g><path class="st2" d="M503 277.51a.592.592 0 0 1-.34-.3c-1.19-2.66-.55-5.78.25-8.6a94.071 94.071 0 0 1 5.67-14.99l.09-.14 7.41-27.22c.83-3.06 1.72-6.22 3.74-8.66 2.33-2.81 6.63-4.39 9.73-1.94.7.55 1.5.98 2.37 1.12 2.5.42 3.14-1.44 3.59-3.04 1.69-6.03 3.37-12.07 5.06-18.1.6-2.16 1.5-4.63 3.63-5.31 1.23-.39 2.57-.05 3.82.29 22.85 6.28 45.57 13.06 68.12 20.34 3.72 1.2 8 3 8.88 6.81.45 1.93-.13 3.93-.73 5.82-2.21 6.9-4.84 13.66-7.87 20.23l-.2-.15c2.64.8 5.34 1.62 7.57 3.26s3.91 4.27 3.67 7.02c-.23 2.61-2.08 4.74-3.2 7.1-1.65 3.46-1.74 7.41-2.43 11.18-.87 4.73-2.71 9.22-4.54 13.67-.62 1.5-1.24 3.01-1.85 4.51-2.46 6-4.92 11.99-7.38 17.99-.31.76-.67 1.58-1.38 1.98-.9.51-2.03.2-3.01-.12-33.46-10.89-67.24-21.84-100.67-32.75z"/><path class="st6" d="M616.49 290.95c-.59-2.09-2.3-3.26-4.22-4.09-3.46-1.5-7.3-2.31-10.91-3.4-8.12-2.46-16.22-4.99-24.3-7.59-16-5.15-31.91-10.59-47.71-16.3-4.33-1.57-8.62-3.29-12.99-4.74-3.12-1.04-6.35-1.63-9.37-.02-.49.26-.05 1.01.44.75 4.4-2.35 9.64.44 13.87 2 4.59 1.69 9.2 3.36 13.81 5 9.07 3.23 18.17 6.37 27.3 9.42 9.13 3.05 18.3 6.01 27.49 8.87 4.67 1.46 9.36 2.89 14.04 4.3 3.55 1.07 10.53 1.86 11.71 6.04.16.52 1 .3.84-.24zM512.94 234.89c30.36-.75 60.74 6.49 87.53 20.81 7.52 4.02 14.72 8.6 21.58 13.67.45.33.88-.42.44-.75-24.32-17.98-53.19-29.48-83.19-33.28-8.74-1.11-17.55-1.53-26.36-1.32-.56.02-.56.89 0 .87z"/><path class="st6" d="M599.67 254.61c1.87-2.9 4.04-5.65 6.63-7.95 3.08-2.74 6.8-3.33 10.79-2.72.55.08.78-.75.23-.83-3.55-.55-7.29-.34-10.28 1.82-3.29 2.38-5.93 5.85-8.12 9.24-.3.47.45.91.75.44zM543.27 236.18c1.63-7.97-2.1-16.51-9.39-20.34-.49-.26-.93.49-.44.75 6.94 3.65 10.55 11.76 8.99 19.36-.1.54.73.77.84.23zM508.94 249.33c3.21.87 6.09 3.36 7.83 6.14.3.47 1.04.04.75-.44-1.86-2.97-4.92-5.62-8.35-6.54-.54-.14-.77.69-.23.84zM618.27 285.15c-2.9-.69-6.11-.49-8.89.6-.51.2-.29 1.04.23.83 2.64-1.03 5.68-1.25 8.43-.6.54.14.78-.7.23-.83z"/><path class="st2" d="M591.42 305.77c.47 3.25-.88 6.45-1.78 9.61-.27.94-.49 2 0 2.85.45.8 1.4 1.17 2.28 1.42.64.18 1.35.33 1.95.04.54-.26.87-.82 1.16-1.35 1.78-3.22 3.51-6.5 5.95-9.25M516.76 281.57c-2.29 2.36-3.07 5.74-4.19 8.83-.33.92-.78 1.91-1.67 2.31-.84.38-1.82.13-2.69-.19-.62-.23-1.28-.52-1.6-1.11-.29-.53-.22-1.17-.15-1.77.45-3.65.97-7.33.6-10.98"/><path class="st6" d="M506.52 285.08c2.32 1.27 5 2 7.65 2.07.56.01.56-.85 0-.87-2.48-.06-5.03-.75-7.21-1.95-.49-.27-.92.48-.44.75zM590.09 311.95c1.99 1.85 4.78 2.84 7.47 2.99.56.03.56-.84 0-.87-2.45-.13-5.04-1.05-6.86-2.73-.41-.38-1.02.23-.61.61z"/></g><g><path class="st2" d="M466.26 90.81s10.92 10.78 12.45 14.32c1.53 3.54 1.16 4.91-1.25 8.6-2.41 3.69-10.07 15.22-25.41 28.84s-8.89 11.18-41.87 37.29c0 0-3.76 3.84-9.74-.06s-17.6-15.74-22.72-22.72c0 0-3.77-5.13-.3-9.34 3.47-4.2 16.84-23.38 36.91-42.47s20.58-19.9 32.78-27.88c4.25-2.77 19.15 13.42 19.15 13.42z"/><path class="st6" d="M422.29 120.22c2.74 1.65 5.3 3.55 7.63 5.74 1.02.96 1.99 1.98 2.92 3.03.46.53.91 1.07 1.35 1.62-.03-.04 1.99 2.41 1.89 2.73-.62.39-1.25.79-1.87 1.18-.49-.13-.97-.3-1.42-.52-.69-.29-1.36-.62-2.01-.99-1.29-.74-2.5-1.61-3.59-2.61-2.78-2.54-5.93-6.4-4.25-10.35.23-.54-.57-1.01-.8-.47-1.81 4.28 1.06 8.32 4.12 11.21 2.71 2.56 7.29 5.95 11.16 4.29.17-.07.28-.35.21-.52-2.51-6.44-9.11-11.67-14.86-15.14-.53-.3-.99.5-.48.8zM427.12 135.2c2.18 1.56 4.52 2.95 7.14 3.62 1.1.28 2.23.19 3.31.43.92.2 1.91.7 2.21 1.76.37.43.36.88-.04 1.33-.04.74-.44 1.04-1.18.9-2.8 1.07-7.56.43-10.33-.33-2.24-.61-5.29-1.19-3.53-4.17.76-1.29 2.04-2.45 2.98-3.62.37-.46-.28-1.12-.65-.65-1.27 1.57-3.44 3.36-4.22 5.24-.41.99-.02 1.62.76 2.21 3.79 2.88 9.77 2.9 14.23 2.35.99-.12 2.61-.06 3.21-1.03.64-1.02-.28-3.29-.97-4.03-1.13-1.2-2.9-.83-4.38-1.06-3.01-.47-5.63-2-8.07-3.75-.49-.34-.95.46-.47.8zM414.06 116.9c1.93-.08 3.09.64 3.51 2.68.11.53.17 1.06.29 1.59.2.85.47 1.69.74 2.52.12.36.23.71.35 1.07.01.79-.35 1.15-1.06 1.09-.56.3-2.13.58-2.78.36-2.09-.69-1.74-2.49-1.64-4.02.13-1.93.49-3.79 1.05-5.64.17-.57-.72-.81-.89-.25-.51 1.68-.86 3.4-1.02 5.15-.12 1.32-.4 3.05.1 4.33.45 1.15 1.28 1.32 2.41 1.35 1.09.02 3.2-.11 4.13-.66.6-.36.74-.71.74-1.4 0-1.56-1.09-3.32-1.37-4.88-.22-1.22.03-2.72-1.11-3.54-.94-.68-2.32-.73-3.43-.68-.61.03-.62.96-.02.93zM412.18 137.8c1.76-.07 3.49.98 4.69 2.2a9 9 0 0 1 1.16 1.45c.62.96 2.01 3.54-.56 3.94-1.64.26-3.61-1.47-4.49-2.68-1.14-1.59-1.49-3.43-.41-5.14.32-.5-.48-.97-.8-.47-1.37 2.16-.81 4.62.76 6.53 1.3 1.59 4.05 3.46 6.18 2.4 2.25-1.12.88-3.98-.17-5.47-1.4-1.98-3.85-3.8-6.37-3.7-.58.04-.58.96.01.94zM405.84 144.14c1.76-.07 3.49.98 4.69 2.2a9 9 0 0 1 1.16 1.45c.62.96 2.01 3.54-.56 3.94-1.64.26-3.61-1.47-4.49-2.68-1.14-1.59-1.49-3.43-.41-5.14.32-.5-.48-.97-.8-.47-1.37 2.16-.81 4.62.76 6.53 1.3 1.59 4.05 3.46 6.18 2.4 2.25-1.12.88-3.98-.17-5.47-1.4-1.98-3.85-3.8-6.37-3.7-.58.04-.59.97.01.94zM399.8 150.35c1.76-.07 3.49.98 4.69 2.2a9 9 0 0 1 1.16 1.45c.62.96 2.01 3.54-.56 3.94-1.64.26-3.61-1.47-4.49-2.68-1.14-1.59-1.49-3.43-.41-5.14.32-.5-.48-.97-.8-.47-1.37 2.16-.81 4.62.76 6.53 1.3 1.59 4.05 3.46 6.18 2.4 2.25-1.12.88-3.98-.17-5.47-1.4-1.98-3.85-3.8-6.37-3.7-.58.04-.59.96.01.94zM393.24 156.91c1.76-.07 3.49.98 4.69 2.2a9 9 0 0 1 1.16 1.45c.62.96 2.01 3.54-.56 3.94-1.64.26-3.61-1.47-4.49-2.68-1.14-1.59-1.49-3.43-.41-5.14.32-.5-.48-.97-.8-.47-1.37 2.16-.81 4.62.76 6.53 1.3 1.59 4.05 3.46 6.18 2.4 2.25-1.12.88-3.98-.17-5.47-1.4-1.98-3.85-3.8-6.37-3.7-.59.04-.59.96.01.94z"/><path class="st10" d="M417.48 154.55c1.44-.4 4.54-.72 7.7 2.42.47.47.8 1.1.79 1.76-.01.82-.45 1.83-2.31 2.21-3.36.69-6.54-3.27-7.12-4.21a1.71 1.71 0 0 1-.12-.23c-.34-.81.22-1.71 1.06-1.95zM410.85 160.22c1.44-.4 4.54-.72 7.7 2.42.47.47.8 1.1.79 1.76-.01.82-.45 1.83-2.31 2.21-3.36.69-6.54-3.27-7.12-4.21a1.71 1.71 0 0 1-.12-.23c-.34-.81.21-1.72 1.06-1.95zM404.28 166.32c1.44-.4 4.54-.72 7.7 2.42.47.47.8 1.1.79 1.76-.01.82-.45 1.83-2.31 2.21-3.36.69-6.54-3.27-7.12-4.21a1.71 1.71 0 0 1-.12-.23c-.35-.82.21-1.72 1.06-1.95zM424.09 148.72c1.44-.4 4.54-.72 7.7 2.42.47.47.8 1.1.79 1.76-.01.82-.45 1.83-2.31 2.21-3.36.69-6.54-3.27-7.12-4.21a1.71 1.71 0 0 1-.12-.23c-.35-.81.21-1.72 1.06-1.95zM408.59 133.22c.4-1.44.72-4.54-2.42-7.7-.47-.47-1.1-.8-1.76-.79-.82.01-1.83.45-2.21 2.31-.69 3.36 3.27 6.54 4.21 7.12.08.05.16.09.23.12.82.35 1.72-.21 1.95-1.06zM402.7 139.77c.4-1.44.72-4.54-2.42-7.7-.47-.47-1.1-.8-1.76-.79-.82.01-1.83.45-2.21 2.31-.69 3.36 3.27 6.54 4.21 7.12.08.05.16.09.23.12.81.34 1.72-.21 1.95-1.06zM396.74 146.25c.4-1.44.72-4.54-2.42-7.7-.47-.47-1.1-.8-1.76-.79-.82.01-1.83.45-2.21 2.31-.69 3.36 3.27 6.54 4.21 7.12.08.05.16.09.23.12.82.35 1.72-.21 1.95-1.06zM390.9 152.94c.4-1.44.72-4.54-2.42-7.7-.47-.47-1.1-.8-1.76-.79-.82.01-1.83.45-2.21 2.31-.69 3.36 3.27 6.54 4.21 7.12.08.05.16.09.23.12.81.34 1.71-.21 1.95-1.06zM445.97 134.28l-23.27-23.27c-.79-.79-.79-2.09 0-2.88l16.08-16.08c.79-.79 2.09-.79 2.88 0l23.27 23.27c.79.79.79 2.09 0 2.88l-16.08 16.08c-.79.79-2.09.79-2.88 0zM462.84 103.37l-9.21-9.21c-.68-.68-.68-1.8 0-2.48.68-.68 1.8-.68 2.48 0l9.21 9.21c.68.68.68 1.8 0 2.48-.68.69-1.8.69-2.48 0z"/></g><g><path class="st2" d="M256.66 314.16c-4.1-5.15-9.94-8.4-16.45-9.16-.97-.11-1.93-.17-2.89-.17-5.5 0-10.79 1.84-15.14 5.3-10.56 8.4-12.26 23.88-3.81 34.51 8.46 10.62 23.92 12.43 34.48 4.02 10.56-8.4 12.27-23.87 3.81-34.5zm-3.97 3.16c-6.7-8.42-18.96-9.85-27.33-3.19-4.12 3.28-6.68 7.99-7.19 13.25-.04.44-.44.78-.88.72a.807.807 0 0 1-.72-.88c.56-5.7 3.33-10.8 7.79-14.36 9.06-7.21 22.33-5.67 29.59 3.45 3.6 4.52 5.18 10.17 4.45 15.89a.8.8 0 0 1-.8.7c-.03 0-.07 0-.1-.01a.8.8 0 0 1-.69-.9c.67-5.27-.79-10.48-4.12-14.67z"/><path class="st2" d="M230.82 354.61c-5.22-1.41-10.07-4.41-13.7-8.97-3.56-4.47-5.4-9.75-5.67-15.06-7.46-9.47-14.91-18.94-22.37-28.41a.906.906 0 0 1-.13-.26c-1.11.9-2.23 1.79-3.33 2.7-.94.77-1.9 1.57-2.38 2.69-.47 1.11-.12 3.06.72 3.99 19.61 24.58 39.21 49.16 58.82 73.75.83 1.04 1.77 2.15 3.07 2.41 1.6.32 3.11-.75 4.38-1.76l3.15-2.49c-7.19-9.61-14.86-18.83-22.39-28.17a.935.935 0 0 1-.17-.42zM211.45 328.01c.35-7.24 3.65-14.28 9.73-19.12 5.45-4.34 12.27-6.28 19.21-5.47.43.05.85.14 1.27.21-7.22-8.95-14.44-17.9-21.66-26.84-9.93 8.1-19.94 16.11-29.88 24.19.03.03.06.04.09.07 7.08 8.98 14.16 17.97 21.24 26.96zM263.54 331.55c-.54 6.97-3.81 13.7-9.68 18.37a25.84 25.84 0 0 1-16.16 5.64c-1.53 0-3.06-.17-4.57-.44 7.24 8.97 14.59 17.85 21.5 27.08 10.1-7.99 20.2-15.99 30.31-23.98 0-.01-.01-.01-.02-.01-7.13-8.88-14.25-17.77-21.38-26.66zM244.45 287.41c.24-.18.48-.35.72-.52.61-.42 1.22-.85 1.68-1.42.45-.58.73-1.34.57-2.06-.13-.56-.49-1.02-.85-1.47-.7-.88-1.41-1.76-2.11-2.63-1.11-1.38-2.22-2.76-3.33-4.15-.37-.46-.74-.92-1.21-1.28s-1.05-.6-1.63-.55c-.65.05-1.2.45-1.73.82-.53.39-1.08.8-1.63 1.21 3.19 4 6.32 8.05 9.52 12.05z"/><path class="st2" d="M288.61 345.43l-8.18-9.86c-1.71-2.07-3.5-4.28-3.86-6.94-.58-4.21 2.57-8.29 1.81-12.47-.42-2.3-1.97-4.22-3.46-6.02l-11.49-13.89c-1.32-1.6-2.73-3.26-4.65-4.04-2.57-1.04-5.45-.29-8.22-.16-2.52.12-4.29.22-6.45-2.79a.666.666 0 0 1-.45-.26c-3.66-4.55-7.19-9.19-10.85-13.74a.842.842 0 0 1-.18-.52c-.48-.56-.97-1.07-1.5-1.48-.95-.73-2.08-1.3-3.27-1.25-2.16.09-4.24 1.58-5.8 3.07-.28.23-.56.45-.84.68 7.63 9.46 15.26 18.92 22.9 28.38a26.065 26.065 0 0 1 13.77 9.01c3.74 4.7 5.59 10.29 5.69 15.87 7.49 9.34 14.98 18.68 22.47 28.03.05.07.08.14.11.21 1.14-.84 2.26-1.62 3.14-2.54 1.16-1.19 2.12-2.19 2.07-3.85-.03-2.07-1.43-3.84-2.76-5.44z"/></g><g><path class="st2" d="M327.42 226.75c-3.55 0-7.09 1.35-9.79 4.05-2.62 2.62-4.06 6.1-4.06 9.79 0 3.7 1.44 7.18 4.06 9.79 5.4 5.4 14.19 5.4 19.59 0s5.4-14.19 0-19.59c-2.7-2.69-6.25-4.04-9.8-4.04zm6.09 19.92c-1.68 1.68-3.88 2.52-6.08 2.52s-4.41-.84-6.08-2.52c-3.35-3.35-3.35-8.81 0-12.17 3.36-3.35 8.81-3.35 12.17 0 3.34 3.36 3.34 8.82-.01 12.17z"/><path class="st2" d="M327.42 233.12c-1.92 0-3.83.73-5.29 2.19a7.484 7.484 0 0 0 0 10.58 7.484 7.484 0 0 0 10.58 0 7.484 7.484 0 0 0 0-10.58 7.432 7.432 0 0 0-5.29-2.19zm3.53 10.99a4.967 4.967 0 0 1-7.04 0 4.967 4.967 0 0 1 0-7.04 4.967 4.967 0 0 1 7.04 0 4.985 4.985 0 0 1 0 7.04zM360.31 259.63c-3.55 0-7.1 1.35-9.8 4.05-5.4 5.4-5.4 14.19 0 19.59s14.19 5.4 19.59 0 5.4-14.19 0-19.59c-2.69-2.7-6.24-4.05-9.79-4.05zm6.32 20.16a8.927 8.927 0 0 1-12.63 0 8.927 8.927 0 0 1 0-12.63 8.927 8.927 0 0 1 12.63 0c3.48 3.49 3.48 9.15 0 12.63z"/><path class="st2" d="M407.53 271.02l-70.69-70.69a2.867 2.867 0 0 0-4.04 0l-45.5 45.5a2.867 2.867 0 0 0 0 4.04l70.7 70.69a2.867 2.867 0 0 0 4.04 0l45.5-45.5c1.1-1.11 1.1-2.93-.01-4.04zm-90.69-19.84a14.88 14.88 0 0 1-4.39-10.59c0-4 1.56-7.76 4.39-10.59 5.84-5.84 15.34-5.84 21.18 0s5.84 15.34 0 21.18a14.938 14.938 0 0 1-10.59 4.38c-3.84 0-7.68-1.46-10.59-4.38zm62.14 40.97c-5.15 5.15-11.91 7.72-18.67 7.72-6.76 0-13.52-2.57-18.67-7.72-4.99-4.99-7.73-11.62-7.73-18.67 0-7.05 2.75-13.68 7.73-18.67 10.29-10.29 27.04-10.29 37.34 0 10.29 10.29 10.29 27.04 0 37.34z"/><path class="st2" d="M360.31 248.21c-6.47 0-12.95 2.46-17.87 7.39-4.77 4.77-7.4 11.12-7.4 17.87 0 6.75 2.63 13.1 7.4 17.87 9.86 9.86 25.89 9.86 35.75 0s9.86-25.89 0-35.75a25.267 25.267 0 0 0-17.88-7.38zm10.59 35.86a14.921 14.921 0 0 1-10.59 4.38c-3.83 0-7.67-1.46-10.59-4.38-5.84-5.84-5.84-15.34 0-21.18s15.34-5.84 21.18 0 5.84 15.34 0 21.18z"/></g><path id="XMLID_6_" class="st12" d="M450.38 269.11c-6.1 1.56-23.1 13.66-29.04 19.59l47.99 47.99c.01.01.01 0 .02-.01 5.75-5.76 18.02-22.94 19.58-29.03"/><path id="XMLID_9_" class="st2" d="M420.69 288.25c-17.59 17.59-20.3 42.72-6.96 56.05 13.34 13.34 38.27 10.82 56.05-6.96l-49.09-49.09"/><g><path class="st2" d="M578.18 161.41c.15-1 .32-1.92.43-2.84.36-2.85.3-5.67-.14-8.46-.49-3.12-1.47-6.08-2.95-8.84-.78-1.46-1.79-2.81-2.72-4.19-.34-.5-.76-.95-1.16-1.42-.2-.23-.14-.4.15-.52l.27-.12c11.39-5.13 22.77-10.27 34.16-15.41.39-.18.62-.18.91.14 1.11 1.23 2.12 2.53 3 3.92 1.13 1.79 2.03 3.7 2.69 5.71 1.7 5.13 1.81 10.4.42 15.78-.09.35-.26.56-.62.73-11.3 5.08-22.6 10.18-33.89 15.27-.16.08-.33.15-.55.25zM579.23 163.68c.21-.09.4-.18.59-.26 11.28-5.09 22.57-10.17 33.85-15.27.33-.15.57-.14.88.01 2.68 1.35 5.09 3.04 7.18 5.1 2 1.97 3.68 4.17 4.94 6.66.98 1.93 1.82 3.92 2.29 6.04.28 1.26.44 2.55.63 3.84.02.13-.13.32-.26.43-.12.11-.3.15-.45.22-11.34 5.11-22.67 10.22-34.01 15.33-.62.28-.64.28-.72-.33-.29-2.16-.79-4.26-1.56-6.29-.7-1.85-1.56-3.63-2.64-5.31-.98-1.53-2.08-2.97-3.33-4.3a30.29 30.29 0 0 0-6.97-5.53c-.13-.07-.25-.14-.38-.22 0-.01 0-.05-.04-.12z"/><path class="st2" d="M576.02 156.77c-.14-.52-.23-.97-.37-1.41-.54-1.64-1.02-3.32-1.68-4.92-.74-1.81-1.59-3.59-2.51-5.32-1.08-2.04-2.33-4.01-3.79-5.82-1.4-1.74-2.88-3.42-4.34-5.11-.59-.68-.42-1.66.42-2.14.1-.06.2-.1.3-.15 11.37-5.13 22.75-10.26 34.12-15.38.6-.27.6-.27.88.27.39.75.79 1.48 1.16 2.24.25.49.23.5-.3.74-9.76 4.4-19.53 8.8-29.29 13.21-1.55.7-2.27 2.49-1.52 3.85.2.37.52.67.8 1 1.87 2.18 3.31 4.62 4.36 7.27 1.45 3.67 2.06 7.53 1.85 11.54 0 0-.02.02-.09.13zM581.44 168.38c.83.76 1.72 1.46 2.46 2.28 1.13 1.25 2.25 2.53 3.22 3.89 1.39 1.95 2.41 4.09 3.18 6.36.6 1.77.98 3.6 1.24 5.45.19 1.38 1.67 2.35 3.14 2.06.38-.07.76-.19 1.11-.35 9.69-4.36 19.38-8.73 29.06-13.1.49-.22.5-.23.69.24.35.87.68 1.76 1.03 2.64.08.2.03.32-.18.41l-.27.12c-11.41 5.15-22.82 10.29-34.24 15.44-1.13.51-2.02.02-2.12-1.12-.21-2.42-.5-4.82-1.1-7.16-.54-2.12-1.09-4.25-1.82-6.3-.7-1.96-1.58-3.85-2.5-5.71-.71-1.43-1.61-2.77-2.43-4.15-.19-.32-.42-.61-.62-.91.07-.02.11-.05.15-.09z"/></g><g id="Typewriter"><path class="st2" d="M258.69 153.5c-3.34 3.35-4.54 8.39-2.75 12.76.01.03.03.06.04.09 1.3 3.11 3.24 5.91 5.17 8.67l20.64 29.67c1.8 2.59 3.5 5.64 6.43 6.82 1.67.67 4.05 1.13 6.37.94 1.86-.15 3.59-1.02 4.91-2.33 24.08-23.92 48.17-47.79 72.24-71.71 2.96-2.94 5.84-5.83 6.84-9.88 1-4.05-2.05-9.15-4.31-10.66-12.4-8.43-24.97-16.25-37.36-24.67-3.3-2.24-7-4.59-10.95-4.05-3.52.48-6.29 3.13-8.79 5.64-19.48 19.54-39 39.16-58.48 58.71z"/><circle class="st13" cx="273.27" cy="158.66" r="5.54"/><circle class="st13" cx="283.52" cy="148.41" r="5.54"/><circle class="st13" cx="293.85" cy="138.09" r="5.54"/><circle class="st13" cx="304.11" cy="127.82" r="5.54"/><circle class="st13" cx="314.36" cy="117.57" r="5.54"/><circle class="st13" cx="324.69" cy="107.25" r="5.54"/><circle class="st13" cx="283.71" cy="169.1" r="5.54"/><circle class="st13" cx="293.96" cy="158.85" r="5.54"/><circle class="st13" cx="304.28" cy="148.52" r="5.54"/><circle class="st13" cx="314.55" cy="138.25" r="5.54"/><circle class="st13" cx="324.8" cy="128" r="5.54"/><circle class="st13" cx="335.12" cy="117.68" r="5.54"/><circle class="st13" cx="294.13" cy="179.52" r="5.54"/><circle class="st13" cx="304.38" cy="169.27" r="5.54"/><circle class="st13" cx="314.71" cy="158.95" r="5.54"/><circle class="st13" cx="324.98" cy="148.68" r="5.54"/><circle class="st13" cx="335.23" cy="138.43" r="5.54"/><circle class="st13" cx="345.55" cy="128.11" r="5.54"/><path class="st2" d="M260.44 141.6l-17.65-17.5c-.58-.57-1.18-1.2-1.33-1.99-.24-1.29.77-2.44 1.7-3.36l42.43-41.98c.84-.83 1.84-1.73 3.02-1.65 1.04.07 1.85.87 2.57 1.62 5.64 5.91 10.88 11.41 16.52 17.33"/><path class="st6" d="M261.93 131.44a975.227 975.227 0 0 0 35.35-35.4c.41-.43-.24-1.08-.65-.65a975.215 975.215 0 0 1-35.35 35.4c-.43.41.22 1.06.65.65zM257.29 126.09c11.64-11.76 23.28-23.53 34.92-35.29.35-.35-.19-.89-.54-.54-11.64 11.76-23.28 23.53-34.92 35.29-.34.35.2.89.54.54zM251.74 121.08l34.89-34.95c.35-.35-.19-.89-.54-.54l-34.89 34.95c-.35.34.19.89.54.54zM280.16 203.65c6.93-.42 13.2-4.77 18.15-9.34 6.74-6.21 12.99-13.03 19.45-19.54 13.42-13.53 26.84-27.07 40.26-40.6 5.27-5.31 11.79-11.63 11.43-19.81-.02-.49-.79-.49-.77 0 .35 7.78-5.82 13.84-10.85 18.91-6.18 6.24-12.37 12.47-18.55 18.71-12.37 12.47-24.74 24.95-37.11 37.42-5.96 6.01-13.04 12.93-22 13.48-.5.04-.51.8-.01.77z"/><path class="st2" d="M323.74 84.45c-1.53.63-3.3.43-4.83-.21-1.52-.64-2.84-1.69-4.09-2.78a61.725 61.725 0 0 1-4.99-4.85c-.76-.82-1.51-1.7-1.82-2.78-.43-1.49.09-3.11.89-4.45 1.06-1.79 2.62-3.27 4.45-4.25 1.38-.74 3.05-1.18 4.51-.62.94.36 1.68 1.08 2.4 1.79l4.32 4.26c1.16 1.15 2.34 2.31 3.19 3.71.85 1.4 1.35 3.07 1.05 4.68-.26 1.38-1.1 2.6-2.14 3.54s-2.28 1.63-3.53 2.27l.59.4c1.37 1.4 2.73 2.8 4.1 4.2l-10.5 5.44c-2.89-2.84-5.78-5.67-8.67-8.51-.51-.5-1.06-1.08-1.11-1.8-.05-.65.33-1.24.72-1.76.88-1.15 2.67-2.94 3.86-3.76M244.65 146.02c1.02-.69 2.44-2.33 3.3-3.21.86-.88 2.02-1.64 3.24-1.46 1.34.2 2.24 1.42 3.07 2.49 2.03 2.65 4.48 4.97 7.23 6.86l-5.65 10.93c-1.45-1.21-3.73-2.84-5.18-4.05-1.26 1.84-2.93 3.46-4.99 4.3-2.06.84-4.56.8-6.4-.45-1.41-.95-2.31-2.47-3.5-3.68-1.76-1.8-4.28-3.1-5.02-5.51-.68-2.24.47-4.61 1.88-6.48.82-1.1 1.76-2.13 2.92-2.87 1.16-.74 2.56-1.16 3.91-.95 1.99.31 3.52 1.86 4.9 3.33 1.48 1.58 2.96 3.16 4.44 4.73 1.02 1.09 2.07 2.21 2.66 3.59.59 1.38.63 3.09-.28 4.28"/><path class="st2" d="M313.68 90.44c-18.55 18.63-37.91 38.07-56.45 56.7l2.77 4.2 3.47.68 59.34-56.89-9.13-4.69z"/></g><path class="st14" d="M168.28 179c-1.95-2.36-3.78-4.43-5.44-6.63-1.91-2.52-2.93-5.41-3.03-8.59-.18-5.84 3.59-10.1 9.42-10.63 2.71-.24 5.31.23 7.75 1.39 2.61 1.23 5.19 2.55 7.26 4.64.21.21.49.36.84.61.38-.44.76-.82 1.09-1.24 1.75-2.25 3.49-4.5 5.23-6.76.54-.71 1.15-.45 1.6.01.92.95 1.87 1.9 2.59 3 1.14 1.76 2.62 2.8 4.61 3.51 6.76 2.42 11.72 7.01 15.1 13.31 1.08 2.01.86 3.46-.63 5.15-8.57 9.75-17.15 19.48-25.7 29.24-1.38 1.57-3 1.95-4.85 1.25-6.8-2.59-12.06-6.98-15.36-13.52-.83-1.64-1.83-2.92-3.53-3.7-1.2-.55-2.32-1.3-3.38-2.08-1.2-.88-1.07-1.33-.02-2.35 2.25-2.2 4.41-4.51 6.45-6.61zm8.58-9.6c1.91-2.17 3.78-4.38 5.74-6.49.8-.86.55-1.39-.24-1.95-.54-.39-1.07-.79-1.61-1.18-3.34-2.39-7.04-3.69-11.16-3.6-4.69.1-7.25 3.04-6.73 7.72.55 4.99 3.04 8.93 6.67 12.25.61.56 1.01.45 1.53-.15 1.91-2.21 3.86-4.4 5.8-6.6z"/><path class="st15" d="M263.57 72.76c.23.23.23.6 0 .83l-.06.06-13.23 13.23c-1.22 1.22-2.35 2.5-3.22 3.99-.78 1.33-1.22 2.76-1.27 4.3-.01.35-.04.7-.01 1.05.33 3.92-1.28 7.11-3.8 9.94-.9 1.01-1.82 1.98-2.77 2.94-13.7 13.71-27.4 27.41-41.11 41.11l-.11.11c-.23.23-.6.23-.83 0l-16.56-16.56a.585.585 0 0 1 0-.83l42.01-42.01c1.63-1.63 3.37-3.15 5.38-4.32 1.68-.98 3.49-1.48 5.43-1.47.41 0 .81-.02 1.22 0 2.88.15 5.3-.92 7.44-2.75.76-.65 1.49-1.33 2.19-2.03 4.33-4.31 8.64-8.64 12.96-12.96l.08-.08c.23-.23.6-.23.83 0l5.43 5.45z"/><g><path class="st2" d="M170.46 271.17c.18.15.4.22.62.19l25.26-2.48-30.23-39.49 4.04 41.2a.9.9 0 0 0 .31.58z"/><path class="st2" d="M198.3 271.45c-.38.18-.79.3-1.22.34l-25.72 2.52c-.13.01-.25.02-.37.02-1.94 0-3.6-1.47-3.79-3.44l-4.36-44.4c-.04-.42.01-.83.1-1.23l-4.27-5.57.22 2.27c1.88-.18 2.16 2.62.27 2.8l.22 2.27c1.88-.18 2.16 2.62.27 2.8l.22 2.27c1.88-.18 2.16 2.62.27 2.8l.22 2.27c1.88-.18 2.16 2.62.27 2.8l.22 2.27c1.88-.18 2.16 2.62.27 2.8l.22 2.27c1.88-.18 2.16 2.62.27 2.8l.22 2.27c1.88-.18 2.16 2.62.27 2.8l.22 2.27c1.88-.18 2.16 2.62.27 2.8l.22 2.27c1.88-.18 2.16 2.62.27 2.8l.22 2.27c1.88-.18 2.16 2.62.27 2.8l.22 2.27c1.88-.18 2.16 2.62.27 2.8l.22 2.27c.78-.08 1.47.49 1.55 1.27h.01l2.27-.22c-.18-1.88 2.62-2.16 2.8-.27l2.27-.22c-.18-1.88 2.62-2.16 2.8-.27l2.27-.22c-.18-1.88 2.62-2.16 2.8-.27l2.27-.22c-.18-1.88 2.62-2.16 2.8-.27l2.27-.22c-.18-1.88 2.62-2.16 2.8-.27l2.27-.22c-.18-1.88 2.62-2.16 2.8-.27l2.27-.22c-.12-1.23 1.02-1.76 1.89-1.46l-2.12-2.93zM200.48 274.29l.91 1.19c-.07-.66-.45-1.03-.91-1.19z"/><g><path class="st2" d="M196.75 268.8c.22-.02.42-.13.57-.31.15-.18.21-.4.19-.62l-4.36-44.4a.839.839 0 0 0-.31-.57.81.81 0 0 0-.54-.19h-.08l-25.72 2.52c-.46.04-.8.47-.76.93l.31 3.17 30.24 39.51.46-.04z"/><path class="st2" d="M204.71 271.44c-1.88.18-2.16-2.62-.27-2.8l-.22-2.27c-1.88.18-2.16-2.62-.27-2.8l-.22-2.27c-1.88.18-2.16-2.62-.27-2.8l-.22-2.27c-1.88.18-2.16-2.62-.27-2.8l-.22-2.27c-1.88.18-2.16-2.62-.27-2.8l-.22-2.27c-1.88.18-2.16-2.62-.27-2.8l-.22-2.27c-1.88.18-2.16-2.62-.27-2.8l-.22-2.27c-1.88.18-2.16-2.62-.27-2.8l-.22-2.27c-1.88.18-2.16-2.62-.27-2.8l-.22-2.27c-1.88.18-2.16-2.62-.27-2.8l-.22-2.27c-1.88.18-2.16-2.62-.27-2.8l-.22-2.27c-.78.08-1.47-.49-1.55-1.27h-.01l-2.27.22c.18 1.88-2.62 2.16-2.8.27l-2.27.22c.18 1.88-2.62 2.16-2.8.27l-2.27.22c.18 1.88-2.62 2.16-2.8.27l-2.27.22c.18 1.88-2.62 2.16-2.8.27l-2.27.22c.18 1.88-2.62 2.16-2.8.27l-2.27.22c.18 1.88-2.62 2.16-2.8.27l-2.27.22c.18 1.88-2.62 2.16-2.8.27l-2.27.22h-.01c.08.78-.49 1.47-1.27 1.55l4.22 5.52c.37-1.54 1.66-2.76 3.32-2.92l25.72-2.52c1.01-.1 2 .2 2.79.85a3.79 3.79 0 0 1 1.38 2.57l4.36 44.4c.1 1.01-.2 2-.85 2.79-.37.45-.83.79-1.34 1.03l3.12 4.08 2.27-.22h.01c-.08-.78.49-1.47 1.27-1.55l-.28-2.19z"/></g></g><g><path class="st2" d="M232.03 241.28l6.06-5.1c.99-.83 1.97-1.66 2.94-2.47-1.88-2.85-3.75-5.59-5.53-8.4-2.2-3.48-4.35-6.99-6.44-10.54-.66-1.12-1.09-2.39-1.54-3.62-.1-.28.03-.81.25-.99.22-.18.69-.09 1.04-.05.2.02.4.14.57.27 1.48 1.08 3.05 2.06 4.41 3.28 4.98 4.46 9.88 9 14.9 13.58-.02.02.06-.03.13-.08 2.97-2.5 5.95-5 8.91-7.51.87-.74.93-1.8.18-2.69-.53-.63-1.09-1.24-1.62-1.87-.15-.18-.31-.36-.47-.51l-3.75-4.22c-4.89-5.54-9.8-11.07-14.67-16.64-.09-.1-.18-.18-.26-.28l.01-.01a18 18 0 0 0-5.8-4.54l-.15-.09c-.04-.02-.07-.01-.1-.03a18.066 18.066 0 0 0-8.57-1.73c-.06 0-.1-.03-.17-.02-.18.01-.35.05-.53.06-.36.03-.72.08-1.08.13l-.59.09c-.42.07-.83.17-1.24.27-.22.06-.45.11-.67.17-.26.08-.52.17-.78.26-.37.12-.73.25-1.08.39-.05.02-.1.04-.14.07-1.61.68-3.1 1.58-4.46 2.74-.02.02-.04.03-.06.04a17.864 17.864 0 0 0-4.15 5.07c-.06.11-.13.22-.19.33-.39.74-.71 1.5-.99 2.27-.09.24-.16.47-.24.71-.23.74-.43 1.5-.57 2.26-.04.24-.06.47-.1.71-.09.68-.15 1.36-.16 2.05 0 .19-.02.37-.02.55.01.83.09 1.67.21 2.5.03.18.05.37.09.55.15.86.37 1.72.66 2.56.04.1.08.21.11.31.64 1.79 1.57 3.51 2.81 5.08.05.06.07.12.12.18 1.93 2.41 3.88 4.8 5.82 7.21 4.66 5.81 9.32 11.62 13.98 17.42.86 1.06 1.89 1.15 2.92.28zM260.67 244.2c-.42-.5-.75-.52-1.23-.11-1.16 1-2.34 1.98-3.51 2.96-.9.76-.9.76-.14 1.67 8.21 9.75 16.43 19.5 24.64 29.25l18.77 22.28c.54.64.68.65 1.32.12 1.19-1 2.38-2 3.57-3.01.75-.63.75-.71.11-1.47-7.23-8.58-14.45-17.16-21.68-25.74l-.01.01-1.59-1.89c-6.75-8.02-13.51-16.04-20.25-24.07zM313.08 300.82c-.74.48-1.43 1.05-2.21 1.63-1.38-1.64-2.76-3.25-4.1-4.89-.36-.44-.61-.53-1.08-.12-1.7 1.46-3.43 2.88-5.14 4.32-.67.56-.67.65-.12 1.31 1.33 1.58 2.67 3.17 4.07 4.83-.48.4-.89.74-1.3 1.1-2.54 2.22-2.8 5.6-.63 8.18 3.29 3.92 6.59 7.83 9.88 11.74.85 1.01 1.95 1.12 2.97.27 4.89-4.11 9.78-8.23 14.66-12.35.97-.81 1.07-1.91.27-2.86-3.41-4.06-6.82-8.12-10.26-12.17-1.69-1.97-4.83-2.41-7.01-.99zm11.22 15.12c-1.48 1.25-2.96 2.49-4.43 3.74-1.48 1.24-2.96 2.49-4.44 3.73-.86.72-1.51.66-2.24-.2-2.04-2.41-4.08-4.82-6.12-7.24-1.37-1.63-1.16-3.94.47-5.31 1.84-1.55 3.68-3.09 5.53-4.63 1.74-1.46 3.93-1.28 5.38.43 2.02 2.39 4.04 4.79 6.06 7.19.74.88.68 1.54-.21 2.29z"/><path class="st2" d="M259.42 241.32l-5.1-6.06c-1.7-2.01-3.32-4.1-5.14-6.01-2.26-2.36-4.63-4.62-7.04-6.83-3.48-3.19-7.02-6.32-10.57-9.43-.94-.82-2.03-1.48-3.05-2.21l-.19.19c.11.3.19.62.32.91 1.59 3.6 3.75 6.89 5.84 10.21 1.53 2.43 3.11 4.83 4.72 7.2 1.55 2.27 3.07 4.58 4.79 6.72 2.95 3.67 6.05 7.22 9.07 10.84.41.49.72.55 1.22.12 1.66-1.43 3.34-2.83 5.02-4.24.7-.6.71-.69.11-1.41z"/></g><path id="XMLID_5_" class="st2" d="M391.31 398.04l-14.69-14.69 38.85-38.85c.58-.58.58-1.35 0-1.93-.58-.58-1.35-.58-1.93 0l-39.04 39.04-14.69-14.69c-.58-.58-1.35-.58-1.93 0s-.58 1.35 0 1.93l31.51 31.51c.58.58 1.35.58 1.93 0 .57-.97.57-1.74-.01-2.32z"/></svg>