<svg xmlns="http://www.w3.org/2000/svg" width="790" height="790" viewBox="0 0 790 790"><title>mmi_thumb</title><path fill="#1f1f1f" d="M0 0h790v790H0z"/><circle cx="408" cy="403.8" r="282" fill="#fff"/><path fill="none" stroke="#00aac4" stroke-miterlimit="10" stroke-width="10.36" d="M445.1 493.7L300.5 329.3l-66.4 27.1"/><path fill="none" stroke="#027985" stroke-miterlimit="10" stroke-width="10.36" d="M281.1 412.6l100.5 101.7"/><path fill="none" stroke="#ee7925" stroke-miterlimit="10" stroke-width="10.36" d="M489.4 609l131.2-13.3 38-5"/><path fill="none" stroke="#273681" stroke-miterlimit="10" stroke-width="10.36" d="M248.2 486.8l90.9 92.6L574 490.9"/><path fill="none" stroke="#7162a8" stroke-miterlimit="10" stroke-width="10.36" d="M67.1 336.9l72.4-74L281 236"/><path fill="none" stroke="#46b494" stroke-miterlimit="10" stroke-width="10.36" d="M174.5 205.7l245.3-41.9 53 53"/><path fill="none" stroke="#e94f40" stroke-miterlimit="10" stroke-width="10.36" d="M371 206.2l29.3 70.6L556 235l11.2-78.3"/><path fill="none" stroke="#65b343" stroke-miterlimit="10" stroke-width="10.36" d="M502.9 299.2l135.8-38.8-35.3-70.3"/><path fill="none" stroke="#e40d67" stroke-miterlimit="10" stroke-width="10.36" d="M713.9 411.8l8.1-110.4-66.5-82.3"/><path fill="none" stroke="#ed7127" stroke-miterlimit="10" stroke-width="10.36" d="M619 314.7l-135.2 39.1-53.9-46.2"/><path fill="none" stroke="#6c365e" stroke-miterlimit="10" stroke-width="10.36" d="M512.6 433.8h-62.9L367 315.3"/><path fill="none" stroke="#e40d67" stroke-miterlimit="10" stroke-width="10.36" d="M722 458.6l-106.5-39.3 45.4-136.8"/><path fill="none" stroke="#009dd6" stroke-miterlimit="10" stroke-width="10.36" d="M710 549.4l-84.7 25.4-52.6-26.6"/><path fill="none" stroke="#e02728" stroke-miterlimit="10" stroke-width="10.36" d="M520.3 557.3l-194.1 63.5-88.4-76.8"/><path fill="none" stroke="#ecd800" stroke-miterlimit="10" stroke-width="10.36" d="M580.9 363.9L556 427.2l155.5 66"/><path fill="none" stroke="#0d7dc0" stroke-miterlimit="10" stroke-width="10.36" d="M127.8 366.6l74.6-67.7 124.1-25.3"/><path fill="none" stroke="#cbd530" stroke-miterlimit="10" stroke-width="10.36" d="M131.9 538.9l93.5-114.5-35.3-39.6"/><path fill="none" stroke="#c8d433" stroke-miterlimit="10" stroke-width="10.36" d="M539.2 672.3l88.5-50.1"/><path fill="none" stroke="#8cbf3f" stroke-miterlimit="10" stroke-width="10.36" d="M449.7 729.4l-20.6-100.2"/><circle cx="445.1" cy="493.7" r="13.2" fill="#fff" stroke="#00aac4" stroke-miterlimit="10" stroke-width="10.36"/><circle cx="512.6" cy="433.8" r="13.2" fill="#fff" stroke="#6c365e" stroke-miterlimit="10" stroke-width="10.36"/><circle cx="429.9" cy="307.6" r="13.2" fill="#fff" stroke="#ed7127" stroke-miterlimit="10" stroke-width="10.36"/><circle cx="367" cy="315.3" r="13.2" fill="#fff" stroke="#6c365e" stroke-miterlimit="10" stroke-width="10.36"/><circle cx="326.5" cy="273.6" r="13.2" fill="#fff" stroke="#0d7dc0" stroke-miterlimit="10" stroke-width="10.36"/><circle cx="281" cy="236" r="13.2" fill="#fff" stroke="#7162a8" stroke-miterlimit="10" stroke-width="10.36"/><circle cx="371" cy="206.2" r="13.2" fill="#fff" stroke="#e94f40" stroke-miterlimit="10" stroke-width="10.36"/><circle cx="502.9" cy="299.2" r="13.2" fill="#fff" stroke="#65b343" stroke-miterlimit="10" stroke-width="10.36"/><circle cx="472.8" cy="216.8" r="13.2" fill="#fff" stroke="#46b494" stroke-miterlimit="10" stroke-width="10.36"/><circle cx="599.9" cy="184.7" r="13.2" fill="#fff" stroke="#1d1d1b" stroke-miterlimit="10" stroke-width="10.36"/><circle cx="655.5" cy="219.1" r="13.2" fill="#fff" stroke="#1d1d1b" stroke-miterlimit="10" stroke-width="10.36"/><circle cx="580.9" cy="363.9" r="13.2" fill="#fff" stroke="#ecd800" stroke-miterlimit="10" stroke-width="10.36"/><circle cx="619" cy="314.7" r="13.2" fill="#fff" stroke="#ed7127" stroke-miterlimit="10" stroke-width="10.36"/><circle cx="673.3" cy="290.8" r="13.2" fill="#fff" stroke="#1d1d1b" stroke-miterlimit="10" stroke-width="10.36"/><circle cx="713.9" cy="411.8" r="13.2" fill="#fff" stroke="#1d1d1b" stroke-miterlimit="10" stroke-width="10.36"/><circle cx="703.2" cy="509.8" r="13.2" fill="#fff" stroke="#1d1d1b" stroke-miterlimit="10" stroke-width="10.36"/><circle cx="574" cy="490.9" r="13.2" fill="#fff" stroke="#273681" stroke-miterlimit="10" stroke-width="10.36"/><circle cx="572.7" cy="548.2" r="13.2" fill="#fff" stroke="#009dd6" stroke-miterlimit="10" stroke-width="10.36"/><circle cx="520.3" cy="557.3" r="13.2" fill="#fff" stroke="#e02728" stroke-miterlimit="10" stroke-width="10.36"/><circle cx="489.3" cy="609" r="13.2" fill="#fff" stroke="#ee7925" stroke-miterlimit="10" stroke-width="10.36"/><circle cx="539.2" cy="672.3" r="13.2" fill="#fff" stroke="#c8d433" stroke-miterlimit="10" stroke-width="10.36"/><circle cx="429.1" cy="629.2" r="13.2" fill="#fff" stroke="#8cbf3f" stroke-miterlimit="10" stroke-width="10.36"/><circle cx="234.1" cy="356.4" r="13.2" fill="#fff" stroke="#00aac4" stroke-miterlimit="10" stroke-width="10.36"/><circle cx="190.1" cy="384.8" r="13.2" fill="#fff" stroke="#cbd530" stroke-miterlimit="10" stroke-width="10.36"/><circle cx="281.1" cy="412.6" r="13.2" fill="#fff" stroke="#027985" stroke-miterlimit="10" stroke-width="10.36"/><circle cx="381.6" cy="514.3" r="13.2" fill="#fff" stroke="#027985" stroke-miterlimit="10" stroke-width="10.36"/><circle cx="248.2" cy="486.8" r="13.2" fill="#fff" stroke="#273681" stroke-miterlimit="10" stroke-width="10.36"/><circle cx="237.8" cy="544" r="13.2" fill="#fff" stroke="#e02728" stroke-miterlimit="10" stroke-width="10.36"/><circle cx="127.8" cy="551.4" r="13.2" fill="#fff" stroke="#1d1d1b" stroke-miterlimit="10" stroke-width="10.36"/><circle cx="108.6" cy="320.3" r="13.2" fill="#fff" stroke="#1d1d1b" stroke-miterlimit="10" stroke-width="10.36"/><circle cx="174.5" cy="205.7" r="13.2" fill="#fff" stroke="#1d1d1b" stroke-miterlimit="10" stroke-width="10.36"/><path d="M395 36.7C197.1 36.7 36.7 197.1 36.7 395S197.1 753.3 395 753.3 753.3 592.9 753.3 395 592.9 36.7 395 36.7zm0 666.7C224.7 703.4 86.6 565.3 86.6 395S224.7 86.6 395 86.6 703.4 224.7 703.4 395 565.3 703.4 395 703.4z" fill="#009f95"/><path d="M395 72C216.6 72 72 216.6 72 395s144.6 323 323 323 323-144.6 323-323S573.4 72 395 72zm0 584.5c-144.4 0-261.5-117.1-261.5-261.5S250.6 133.5 395 133.5 656.5 250.6 656.5 395 539.4 656.5 395 656.5z" fill="#00958b"/><text transform="matrix(.78 .62 -.62 .78 176.48 641.47)" font-size="66.31" fill="#fff" font-family="Futura-Medium, Futura" font-weight="500">e</text><text transform="rotate(33.1 -1016.329 683.263)" font-size="66.31" fill="#fff" font-family="Futura-Medium, Futura" font-weight="500">t</text><text transform="rotate(29.4 -1177.404 767.224)" font-size="66.31" fill="#fff" font-family="Futura-Medium, Futura" font-weight="500"></text><text transform="rotate(23.6 -1525.421 931.392)" font-size="66.31" fill="#fff" font-family="Futura-Medium, Futura" font-weight="500">d</text><text transform="rotate(16.3 -2327.245 1351.785)" font-size="66.31" fill="#fff" font-family="Futura-Medium, Futura" font-weight="500">e</text><text transform="rotate(10.7 -3662.167 2085.323)" font-size="66.31" fill="#fff" font-family="Futura-Medium, Futura" font-weight="500"></text><text transform="rotate(7.2 -5550.926 3105.088)" font-size="66.31" fill="#fff" font-family="Futura-Medium, Futura" font-weight="500">l</text><text transform="rotate(3.5 -11643.644 6311.662)" font-size="66.31" fill="#fff" font-family="Futura-Medium, Futura" font-weight="500">’</text><text transform="rotate(-.3 138448 -73587.634)" font-size="66.31" fill="#fff" font-family="Futura-Medium, Futura" font-weight="500">I</text><text transform="rotate(-5.6 7606.378 -3824.418)" font-size="66.31" fill="#fff" font-family="Futura-Medium, Futura" font-weight="500">n</text><text transform="rotate(-10.8 4030.965 -2011.41)" font-size="66.31" fill="#fff" font-family="Futura-Medium, Futura" font-weight="500">t</text><text transform="rotate(-16.2 2749.838 -1291.49)" font-size="66.31" fill="#fff" font-family="Futura-Medium, Futura" font-weight="500">e</text><text transform="matrix(.93 -.38 .38 .93 507.54 704.35)" font-size="66.31" fill="#fff" font-family="Futura-Medium, Futura" font-weight="500">r</text><text transform="rotate(-28.2 1647.67 -717.018)" font-size="66.31" fill="#fff" font-family="Futura-Medium, Futura" font-weight="500">n</text><text transform="rotate(-35.2 1347.74 -560.446)" font-size="66.31" fill="#fff" font-family="Futura-Medium, Futura" font-weight="500">e</text><text transform="rotate(-40.5 1182.03 -489.497)" font-size="66.31" fill="#fff" font-family="Futura-Medium, Futura" font-weight="500">t</text><text transform="rotate(-61.3 303.361 33.793)" font-size="66.31" fill="#fff" font-family="Futura-Medium, Futura" font-weight="500">M</text><text transform="matrix(.63 -.77 .77 .63 161 227.6)" font-size="66.31" fill="#fff" font-family="Futura-Medium, Futura" font-weight="500">é</text><text transform="rotate(-44.9 332.69 -125.614)" font-size="66.31" fill="#fff" font-family="Futura-Medium, Futura" font-weight="500">t</text><text transform="rotate(-41.4 345.003 -170.968)" font-size="66.31" fill="#fff" font-family="Futura-Medium, Futura" font-weight="500">i</text><text transform="rotate(-35.9 370.5 -240.077)" font-size="66.31" fill="#fff" font-family="Futura-Medium, Futura" font-weight="500">e</text><text transform="rotate(-29.5 408.459 -385.94)" font-size="66.31" fill="#fff" font-family="Futura-Medium, Futura" font-weight="500">r</text><text transform="rotate(-24.5 457.509 -547.205)" font-size="66.31" fill="#fff" font-family="Futura-Medium, Futura" font-weight="500">s</text><text transform="matrix(.94 -.33 .33 .94 291.07 127.1)" font-size="66.31" fill="#fff" font-family="Futura-Medium, Futura" font-weight="500"></text><text transform="rotate(-12.9 684.22 -1317.496)" font-size="66.31" fill="#fff" font-family="Futura-Medium, Futura" font-weight="500">d</text><text transform="matrix(1 -.09 .09 1 351.81 110.55)" font-size="66.31" fill="#fff" font-family="Futura-Medium, Futura" font-weight="500">u</text><text transform="translate(388.7 107.9)" font-size="66.31" fill="#fff" font-family="Futura-Medium, Futura" font-weight="500"></text><text transform="rotate(9.5 -435.745 2528.822)" font-size="66.31" fill="#fff" font-family="Futura-Medium, Futura" font-weight="500">M</text><text transform="rotate(19.9 -100.887 1416.137)" font-size="66.31" fill="#fff" font-family="Futura-Medium, Futura" font-weight="500">u</text><text transform="rotate(25.4 -37.687 1199.35)" font-size="66.31" fill="#fff" font-family="Futura-Medium, Futura" font-weight="500">l</text><text transform="rotate(29.1 -5.536 1083.817)" font-size="66.31" fill="#fff" font-family="Futura-Medium, Futura" font-weight="500">t</text><text transform="rotate(32.9 20.706 999.069)" font-size="66.31" fill="#fff" font-family="Futura-Medium, Futura" font-weight="500">i</text><text transform="rotate(39.8 61.706 850.17)" font-size="66.31" fill="#fff" font-family="Futura-Medium, Futura" font-weight="500">m</text><text transform="rotate(49 88.21 754.41)" font-size="66.31" fill="#fff" font-family="Futura-Medium, Futura" font-weight="500">é</text><text transform="matrix(.55 .84 -.84 .55 624.84 221.79)" font-size="66.31" fill="#fff" font-family="Futura-Medium, Futura" font-weight="500">d</text><text transform="rotate(62.6 111.627 658.81)" font-size="66.31" fill="#fff" font-family="Futura-Medium, Futura" font-weight="500">i</text><text transform="rotate(68.6 128.305 616.194)" font-size="66.31" fill="#fff" font-family="Futura-Medium, Futura" font-weight="500">a</text></svg>