<?xml version="1.0" encoding="utf-8"?>
<!-- Generator: Adobe Illustrator 23.0.4, SVG Export Plug-In . SVG Version: 6.00 Build 0)  -->
<svg version="1.1" id="Layer_1" xmlns="http://www.w3.org/2000/svg" xmlns:xlink="http://www.w3.org/1999/xlink" x="0px" y="0px"
	 viewBox="0 0 65 65" style="enable-background:new 0 0 65 65;" xml:space="preserve">
<style type="text/css">
	.st0{fill:#121212;}
	.st1{fill:#FFFFFF;}
</style>
<title>triangle3</title>
<polygon class="st0" points="65,0 65,65 0,0 "/>
<g>
	<path class="st1" d="M44,17.4h-5.7c0,0.6,0.2,1.1,0.6,1.6c0.7,0.7,1.8,0.8,2.6,0.2c0.4-0.3,0.7-0.8,1-1.2l1.5,0.9
		c-0.2,0.4-0.5,0.7-0.8,1c-0.2,0.3-0.5,0.5-0.9,0.7c-0.3,0.2-0.6,0.3-1,0.4c-0.4,0.1-0.8,0.1-1.1,0.1c-1.1,0-2.1-0.4-2.9-1.1
		c-0.7-0.8-1.1-1.9-1.1-3c0-1.1,0.3-2.2,1-3c1.5-1.5,4-1.5,5.5,0c0.7,0.9,1.1,2,1,3.1L44,17.4z M42.1,15.9c-0.1-0.9-0.9-1.6-1.9-1.5
		c-0.2,0-0.4,0-0.6,0.1c-0.4,0.1-0.8,0.4-1,0.8c-0.1,0.2-0.2,0.4-0.3,0.6L42.1,15.9z"/>
	<path class="st1" d="M46,13h1.8v0.7c0.6-0.6,1.3-1,2.2-1c0.8,0,1.6,0.3,2.2,0.9c0.5,0.7,0.7,1.6,0.7,2.4v4.9H51v-4.4
		c0.1-0.6-0.1-1.1-0.3-1.6c-0.3-0.3-0.7-0.5-1.2-0.5c-0.5,0-1,0.2-1.3,0.6c-0.3,0.7-0.4,1.4-0.4,2.1v3.8H46V13z"/>
	<path class="st1" d="M55.4,20c0-0.3,0.1-0.6,0.3-0.8c0.2-0.2,0.5-0.3,0.8-0.3c0.3,0,0.6,0.1,0.8,0.3c0.4,0.4,0.4,1.2,0,1.6
		c-0.2,0.2-0.5,0.3-0.8,0.3c-0.3,0-0.6-0.1-0.8-0.3C55.5,20.6,55.4,20.3,55.4,20z"/>
</g>
</svg>
